<svg xmlns="http://www.w3.org/2000/svg" width="292" height="292" viewBox="0 0 292 292" fill="none"><path d="M84.0562 287.12C62.5534 287.12 45.0325 280.948 31.4937 268.604C17.9549 256.26 11.1855 240.133 11.1855 220.223C11.1855 201.109 17.5567 184.783 30.2991 171.244C43.4397 157.705 61.9561 147.352 85.8481 140.184C109.74 132.619 138.012 128.836 170.665 128.836V55.9651C170.665 45.6119 166.683 37.4488 158.719 31.4758C150.755 25.5028 139.804 22.5163 125.867 22.5163C113.921 22.5163 104.165 24.5073 96.5995 28.4893C89.0337 32.4713 85.2507 37.6479 85.2507 44.0191C85.2507 48.0011 86.6445 51.5849 89.4319 54.7705C92.2193 57.9561 93.6129 62.9336 93.6129 69.703C93.6129 78.0652 90.4274 85.0337 84.0562 90.6085C78.0832 95.7851 70.3182 98.3734 60.7614 98.3734C51.2046 98.3734 43.6388 95.586 38.064 90.0112C32.4892 84.0382 29.7018 76.6715 29.7018 67.9111C29.7018 55.9651 34.4802 45.2137 44.037 35.6569C53.5938 25.7019 66.5354 17.937 82.8616 12.3622C99.1878 6.78741 117.505 4 137.813 4C166.882 4 190.575 9.77389 208.892 21.3217C227.209 32.4713 236.368 47.2047 236.368 65.5219V247.101C236.368 251.083 237.562 254.468 239.951 257.255C242.739 259.644 245.924 260.839 249.508 260.839C253.092 260.839 257.273 259.047 262.052 255.463C266.83 251.481 272.803 245.508 279.971 237.544L288.333 247.101C269.617 273.781 248.712 287.12 225.616 287.12C211.679 287.12 200.131 283.337 190.973 275.772C182.212 267.808 176.239 256.857 173.054 242.92H170.665C163.099 255.662 151.153 266.215 134.827 274.577C118.5 282.939 101.577 287.12 84.0562 287.12ZM119.894 254.269C135.026 254.269 147.171 248.694 156.329 237.544C165.886 225.997 170.665 211.064 170.665 192.747V144.366C140.8 144.366 118.301 149.94 103.17 161.09C88.0382 171.841 80.4724 187.769 80.4724 208.874C80.4724 223.209 83.857 234.359 90.6264 242.323C97.794 250.287 107.55 254.269 119.894 254.269Z" fill="white"/></svg>
